<?xml version="1.0" encoding="utf-8"?>
<!-- Generator: Adobe Illustrator 22.1.0, SVG Export Plug-In . SVG Version: 6.00 Build 0)  -->
<svg version="1.1" xmlns="http://www.w3.org/2000/svg" xmlns:xlink="http://www.w3.org/1999/xlink" x="0px" y="0px"
	 viewBox="0 0 1000 478" style="enable-background:new 0 0 1000 478;" xml:space="preserve">
<style type="text/css">
	.st0{fill:#417CC0;}
	.st1{display:none;}
	.st2{display:inline;fill:#FFFFFF;}
	.st3{font-family:'OctoberMoon';}
	.st4{font-size:199.8541px;}
	.st5{display:inline;}
	.st6{font-size:180.5369px;}
	.st7{fill:#FFFFFF;}
	.st8{fill:#B1ECFC;}
</style>
<g id="Calque_1">
	<g>
		<path class="st0" d="M452,230L241.7,19.6c-4.7-4.7-12.3-4.7-17,0L14.3,230c-4.7,4.7-4.7,12.3,0,17l210.4,210.4
			c4.7,4.7,12.3,4.7,17,0L452,247C456.7,242.3,456.7,234.7,452,230z"/>
	</g>
</g>
<g id="vrai_texte" class="st1">
	<text transform="matrix(1 0 0 1 142.9131 298.7197)" class="st2 st3 st4">S</text>
	<g class="st5">
		<text transform="matrix(1 0 0 1 455.6758 291.4453)" class="st0 st3 st6">Sliker</text>
	</g>
</g>
<g id="texte_vecto">
	<g>
		<path class="st7" d="M327.8,227.6c1.3,0.4,2.3,1.1,3,2.2c0.7,1.1,1,2.3,1,3.6c0,0.8-0.1,1.4-0.2,1.8c-2,5.5-4.4,10.9-7.1,16.4
			c-2.7,5.5-5.8,10.9-9.2,16.2c-3.4,5.3-7,10.5-10.9,15.4c-3.9,4.9-7.9,9.5-12,13.8c-6,6.3-12,11.5-17.9,15.6
			c-5.9,4.1-11.8,7.4-17.6,9.9c-5.8,2.5-11.6,4.2-17.4,5.2s-11.6,1.5-17.3,1.5c-6.9,0-13.3-0.9-19.1-2.6c-5.8-1.7-10.8-4.2-15.1-7.3
			c-4.3-3.1-7.6-6.9-10-11.3s-3.6-9.3-3.6-14.6c0-1.7,0.6-3.2,1.8-4.3c1.2-1.1,2.6-1.7,4.2-1.7c1.7,0,3.2,0.6,4.3,1.7
			c1.1,1.1,1.7,2.6,1.7,4.3c0,3.6,0.9,6.9,2.8,9.8c1.9,2.9,4.4,5.4,7.6,7.5c3.2,2.1,7,3.7,11.3,4.8c4.3,1.1,9,1.7,14.1,1.7
			c1.5,0,2.9-0.1,4.3-0.3c1.4-0.2,2.8-0.3,4.3-0.3c12.3-1.5,21.1-6.7,26.7-15.6c5.5-8.9,8.3-21.5,8.3-37.6c0-7.6-1.1-15.1-3.4-22.4
			c-2.3-7.3-5.5-14.8-9.6-22.4c-4.1-7.6-9.1-15.4-14.9-23.4c-5.8-8-12.2-16.5-19.1-25.4c-1.1,3.9-2.2,7.4-3.3,10.7
			c-1.1,3.3-2.4,6.6-3.7,10c-1.3,3.4-2.8,7-4.3,10.7c-1.5,3.7-3.3,8-5.3,12.8c-5.2,12.3-10,22.8-14.3,31.5
			c-4.3,8.7-8.3,16.1-11.9,22c-3.6,5.9-6.8,10.7-9.6,14.3c-2.8,3.6-5.2,6.3-7.2,8.2c-2,1.9-3.6,3.1-4.9,3.7
			c-1.3,0.6-2.2,0.9-2.7,0.9c-1.5,0-2.8-0.5-4.1-1.6c-1.3-1.1-1.9-2.5-1.9-4.4c0-1.2,0.4-2.3,1.1-3.3c0.7-1,1.6-1.8,2.7-2.3
			c1.7,0,4.1-2.1,7.2-6.3c3.1-4.2,6.5-9.7,10.4-16.6c3.9-6.9,7.9-14.7,12.1-23.5s8.3-17.8,12.2-27.1c3.9-9.3,7.5-18.4,10.8-27.4
			c3.3-9,5.8-17.1,7.7-24.3c-1.9-3.2-3.6-7.3-5.1-12.3c-1.5-5-2.3-9.8-2.3-14.5c0-4.7,1.1-8.7,3.2-12.1c2.1-3.4,5.9-5.1,11.4-5.1
			c3.3,0,6,1.3,7.9,3.9c1.9,2.6,2.9,6.2,2.9,10.9c0,2.3-0.2,4.8-0.5,7.7c-0.3,2.9-1,6-1.9,9.5c3.3,4.3,7,8.8,11,13.7
			c4,4.9,8.1,10,12.3,15.4s8.3,11,12.4,16.8c4.1,5.8,7.9,11.7,11.5,17.7c12.1,20.7,18.2,39.2,18.2,55.8c0,6.7-0.8,12.9-2.4,18.6
			c6.9-7.7,13.2-16.2,18.7-25.3c5.5-9.1,9.9-18.2,13.1-27.3c0.4-1.2,1.1-2.2,2.2-2.9c1.1-0.7,2.2-1.1,3.4-1.1
			C326,227.2,326.7,227.3,327.8,227.6z M215.9,130.4c0-2.3-0.1-3.7-0.2-4.4c-0.7,0.4-1,0.7-1,1C214.7,127.6,215.1,128.7,215.9,130.4
			z"/>
	</g>
	<g>
		<path class="st0" d="M622.7,227.2c1.2,0.4,2.1,1,2.7,2c0.6,1,0.9,2,0.9,3.2c0,0.7-0.1,1.3-0.2,1.6c-1.8,4.9-3.9,9.9-6.4,14.8
			c-2.5,4.9-5.2,9.8-8.3,14.6c-3.1,4.8-6.3,9.5-9.8,13.9c-3.5,4.5-7.1,8.6-10.8,12.5c-5.4,5.7-10.8,10.3-16.2,14.1
			c-5.4,3.7-10.7,6.7-15.9,8.9c-5.2,2.2-10.5,3.8-15.7,4.7c-5.2,0.9-10.4,1.4-15.6,1.4c-6.3,0-12-0.8-17.2-2.3
			c-5.2-1.6-9.8-3.8-13.6-6.6c-3.9-2.8-6.9-6.2-9-10.2s-3.2-8.4-3.2-13.2c0-1.6,0.5-2.9,1.6-3.9c1.1-1,2.3-1.5,3.8-1.5
			c1.6,0,2.9,0.5,3.9,1.5c1,1,1.5,2.3,1.5,3.9c0,3.2,0.8,6.2,2.5,8.8c1.7,2.6,4,4.9,6.9,6.8c2.9,1.9,6.3,3.3,10.2,4.3
			c3.9,1,8.2,1.5,12.7,1.5c1.3,0,2.6-0.1,3.9-0.3s2.6-0.3,3.9-0.3c11.1-1.3,19.1-6,24.1-14.1c5-8.1,7.5-19.4,7.5-33.9
			c0-6.9-1-13.6-3.1-20.2c-2-6.6-4.9-13.4-8.7-20.2c-3.7-6.9-8.2-13.9-13.4-21.1c-5.2-7.2-11-14.9-17.2-22.9c-1,3.5-2,6.7-3,9.7
			c-1,3-2.1,6-3.3,9c-1.2,3.1-2.5,6.3-3.9,9.7c-1.4,3.4-3,7.2-4.8,11.6c-4.7,11.1-9,20.6-12.9,28.4c-3.9,7.9-7.5,14.5-10.7,19.9
			c-3.3,5.4-6.1,9.7-8.7,12.9c-2.5,3.3-4.7,5.7-6.5,7.4c-1.8,1.7-3.3,2.8-4.4,3.3c-1.1,0.5-2,0.8-2.4,0.8c-1.3,0-2.6-0.5-3.7-1.4
			c-1.1-1-1.7-2.3-1.7-4c0-1.1,0.3-2.1,1-3c0.7-0.9,1.5-1.6,2.4-2.1c1.6,0,3.7-1.9,6.5-5.7c2.8-3.8,5.9-8.8,9.4-15
			c3.5-6.2,7.1-13.3,10.9-21.2c3.8-7.9,7.5-16.1,11-24.5c3.5-8.4,6.8-16.6,9.7-24.7c2.9-8.1,5.3-15.4,7-21.9
			c-1.7-2.9-3.2-6.6-4.6-11.1c-1.4-4.5-2.1-8.9-2.1-13.1c0-4.2,1-7.9,2.9-10.9c1.9-3.1,5.4-4.6,10.3-4.6c3,0,5.4,1.2,7.1,3.5
			c1.7,2.3,2.6,5.6,2.6,9.8c0,2-0.2,4.4-0.5,7c-0.3,2.6-0.9,5.4-1.7,8.6c3,3.9,6.3,8,9.9,12.4c3.6,4.4,7.3,9,11.1,13.9
			c3.8,4.9,7.5,9.9,11.2,15.2c3.7,5.2,7.1,10.6,10.4,16c11,18.7,16.4,35.4,16.4,50.4c0,6-0.7,11.6-2.2,16.8
			c6.3-7,11.9-14.6,16.9-22.8c5-8.2,8.9-16.5,11.8-24.6c0.4-1.1,1-2,2-2.6c1-0.7,2-1,3.1-1C621.1,226.8,621.7,226.9,622.7,227.2z
			 M521.6,139.4c0-2-0.1-3.4-0.2-4c-0.6,0.4-0.9,0.7-0.9,0.9C520.5,136.8,520.8,137.9,521.6,139.4z"/>
		<path class="st0" d="M644.3,319.1c-6.3,0-11.4-2.8-15.4-8.4c-4-5.6-7.2-13-9.4-22.1c-2.2-9.1-3.5-19.6-4-31.3
			c-0.4-11.7-0.1-23.7,0.9-35.8c1-12.2,2.7-24.1,5.1-35.8c2.4-11.7,5.4-22.2,8.8-31.3c3.5-9.1,7.4-16.5,11.8-22.1
			c4.4-5.6,9.1-8.4,14.2-8.4c4.9,0,8.8,1.8,11.6,5.5c2.8,3.7,4.2,8.9,4.2,15.8c0,4.8-0.7,10.4-2,16.6c-1.3,6.3-3,12.7-5,19.2
			c-2,6.6-4.1,12.9-6.3,19.1c-2.2,6.2-4.3,11.6-6.2,16.2c-2.5,6.1-5.1,12-7.8,17.5c-2.6,5.5-5.3,10.7-7.9,15.5c0,1.8,0,3.6-0.1,5.4
			c-0.1,1.8-0.1,3.6-0.1,5.2c0,10.6,0.4,19,1.1,25.4c0.7,6.3,1.5,11.2,2.4,14.5c0.9,3.4,1.8,5.6,2.6,6.7c0.8,1.1,1.3,1.7,1.4,1.8
			c1.7,0,3.7-1.8,6-5.5c2.3-3.7,4.7-8.2,7.1-13.7c2.4-5.5,4.8-11.5,7.1-18.1c2.3-6.6,4.5-12.7,6.3-18.4c1.9-5.7,3.4-10.6,4.5-14.6
			c1.1-4,1.7-6.3,1.7-7c0.2-1.2,0.9-2.2,1.9-3c1-0.8,2.2-1.2,3.5-1.2c1.6,0,2.9,0.6,3.9,1.7c1,1.1,1.5,2.4,1.5,3.7
			c0,0.2,0,0.5-0.1,0.6c-0.1,0.2-0.1,0.4-0.1,0.6c0,0.2-0.3,1.6-1,4c-0.7,2.4-1.5,5.5-2.6,9.4c-1.1,3.9-2.4,8.2-3.9,13.1
			c-1.5,4.9-3.2,9.8-5,14.9c-5.4,15.2-10.6,26.3-15.6,33.5C654.8,315.5,649.6,319.1,644.3,319.1z M657,134.6
			c-0.5,0.4-1.4,1.6-2.7,3.7c-1.3,2.1-2.8,6.1-4.5,12c-1.2,4.1-2.4,8.9-3.5,14.4c-1.1,5.5-2.2,11.4-3.3,17.7
			c-1,6.3-1.9,12.8-2.7,19.5c-0.8,6.7-1.4,13.4-1.9,19.9c1-2.2,2.2-5.1,3.7-8.9c1.5-3.8,3.1-8,4.8-12.6c1.7-4.6,3.4-9.5,5.1-14.6
			c1.7-5.1,3.3-10.2,4.7-15.2c1.4-5,2.5-9.7,3.3-14.1c0.8-4.4,1.3-8.2,1.3-11.5c0-2.3-0.1-4.1-0.4-5.5c-0.2-1.4-0.6-2.4-1-3.1
			c-0.4-0.7-0.9-1.1-1.4-1.3C658,134.8,657.5,134.7,657,134.6z"/>
		<path class="st0" d="M725.8,227c1.4,0.4,2.6,1.2,3.3,2.4c0.8,1.3,1,2.6,0.6,4.1c-0.1,0.2-0.5,1.5-1.1,3.7
			c-0.6,2.2-1.4,5.1-2.3,8.6c-1,3.5-2.2,7.4-3.6,11.8c-1.4,4.4-3,8.9-4.7,13.6c-2,5.7-4,10.7-6,15.1c-1.9,4.4-3.8,8.2-5.6,11.5
			c-1.3,2-2.5,3.9-3.6,5.4c-1.1,1.6-2.2,2.9-3.4,4.2c-3.4,3.1-6.7,4.7-9.9,4.7h-0.2c-4.9,0-8.8-2.3-11.6-7
			c-2.8-4.6-4.6-10.4-5.6-17.4c-1-7-1.2-14.5-0.7-22.6c0.5-8.1,1.4-15.6,2.9-22.6c1.4-7,3.2-12.8,5.3-17.4c2.1-4.6,4.3-7,6.6-7
			c2.5,0,4.3,2,5.3,6.1c1,4.1,1.6,9.2,1.7,15.3c0.1,6.1-0.1,12.8-0.5,20c-0.5,7.2-1,13.9-1.6,20c-0.6,6.1-1.1,11.3-1.5,15.3
			c-0.4,4.1-0.5,6.1-0.1,6.1c0.2-0.1,0.8-0.5,1.7-1.2c0.9-0.7,2.1-2.1,3.7-4.4c1.6-2.3,3.4-5.7,5.6-10.1c2.2-4.5,4.6-10.5,7.4-18.1
			c1.6-4.5,3-8.9,4.4-13.3c1.4-4.4,2.6-8.3,3.6-11.7c1-3.4,2.1-7.3,3.2-11.5c0.4-1.4,1.2-2.6,2.5-3.3
			C722.9,226.8,724.3,226.6,725.8,227z M688.2,210c-2,0-3.8-0.7-5.1-2.1c-1.4-1.4-2.1-3-2.1-5c0-1.8,0.7-3.4,2.1-4.7
			c1.4-1.3,3.1-2,5.1-2c1.9,0,3.7,0.7,5.2,2c1.6,1.3,2.3,2.9,2.3,4.7c0,1.9-0.8,3.6-2.3,5C691.9,209.3,690.1,210,688.2,210z"/>
		<path class="st0" d="M791.1,319.2c-5.1,0-8.9-1.1-11.5-3.3c-2.6-2.2-4.6-5-6-8.4c-1.4-3.4-2.4-7-3-10.8c-0.6-3.9-1.4-7.5-2.5-10.8
			c-1.1-3.4-2.6-6.2-4.7-8.4c-2-2.2-5.2-3.3-9.4-3.3h-0.5c-0.8,1.9-1.7,3.8-2.4,5.5c-0.8,1.7-1.6,3.3-2.4,4.6c-1.2,2-2.6,4-4.3,5.9
			c-1.7,1.9-3.8,2.8-6.3,2.8c-3.5,0-6.5-2.4-9.1-7.3c-2.6-4.9-4.7-11.3-6.2-19.1c-1.6-7.9-2.6-16.9-3.2-27.1
			c-0.5-10.2-0.5-20.5,0.1-31.1c0.6-10.5,1.8-20.9,3.5-31.1c1.7-10.2,4.1-19.2,7.1-27.1c3-7.9,6.7-14.3,11-19.1s9.3-7.3,15-7.3
			c4.5,0,7.8,1.8,9.9,5.4s2.9,9,2.2,16.1c-0.6,6.3-2.2,13.7-4.9,22.2c-2.5,8.2-5.8,17.3-9.9,27.4c-4.1,10.1-8.9,20.7-14.4,32
			c-0.1,6.1-0.2,12.1-0.2,18c0,5.8,0.1,11.3,0.4,16.5c0.2,3.5,0.4,6.5,0.5,9c0.1,2.5,0.3,4.6,0.5,6.3c0.8-1.7,1.7-3.5,2.6-5.4
			c0.9-1.9,1.8-4,2.8-6.1c2-4.8,4.3-9.8,6.9-15c2.5-5.2,5.4-10,8.5-14.6c3.6-5.3,7.3-9.2,11-11.7c4.8-3.5,9.8-5.2,15-5.2
			c2.6,0,4.8,0.3,6.5,1c1.7,0.7,3,1.5,4.1,2.5c1,1,1.7,2,2.2,3.1c0.4,1,0.7,1.9,0.8,2.6c0.4,2.2,0.1,4.5-0.6,6.9
			c-0.8,2.4-1.9,4.8-3.3,7c-1.4,2.3-2.9,4.4-4.6,6.3c-1.7,1.9-3.2,3.6-4.7,5.1c-2.5,2.5-5.2,4.9-8,7.2c-2.8,2.3-5.8,4.4-8.9,6.3
			c3.3,1.1,6,2.9,8.1,5.4s3.9,5.3,5.2,8.4c1.3,3.1,2.3,6.3,3.1,9.6c0.7,3.3,1.3,6.3,1.6,9.1c0.4,2.8,0.7,5,1,6.8
			c0.3,1.7,0.7,2.6,1.2,2.6h0.4c0.1,0,0.5-0.1,1-0.3c0.5-0.2,1.2-0.6,2.1-1.3c0.8-0.7,1.8-1.7,3-3.1c1.1-1.4,2.4-3.3,3.9-5.7
			c2-3.2,4.1-7.1,6-11.6s4.1-9.7,6.2-15.4c1.8-5.1,3.5-10,5-14.8c1.5-4.8,2.8-9.1,3.8-12.9c1-3.8,2.1-8,3.3-12.7
			c0.4-1.4,1.2-2.6,2.4-3.3c1.3-0.8,2.6-1.1,4.1-0.8c1.6,0.4,2.7,1.2,3.4,2.5c0.7,1.3,1,2.7,0.7,4.2c-0.1,0.2-0.5,1.6-1.1,4
			c-0.6,2.4-1.4,5.5-2.5,9.4c-1.1,3.9-2.4,8.2-4,13.1c-1.6,4.9-3.3,9.9-5.1,15.1c-2.2,6.1-4.4,11.6-6.6,16.5
			c-2.2,4.9-4.4,9.1-6.6,12.5C804.2,314.1,797.8,319.2,791.1,319.2z M756.3,134.6c-1,0-2.1,1.1-3.4,3.3c-2.8,4.5-5.2,11.9-7.3,22.2
			c-2.1,10.4-3.7,22.8-4.8,37.4c2.6-6.1,5-12,7-17.5c2-5.5,3.9-10.8,5.4-15.7c1.7-5.7,2.9-10.3,3.5-14c0.7-3.7,1.1-6.6,1.2-8.8
			c0.1-2.2,0-3.8-0.3-4.8c-0.3-1-0.5-1.7-0.6-1.9C756.9,134.6,756.6,134.6,756.3,134.6z M784.8,233.9c-2-2-4.2-2.6-6.3-1.5
			c-2.2,1-4.3,3-6.5,5.9c-2.2,2.9-4.3,6.3-6.3,10.3c-2,4-4,7.8-5.8,11.6c2.6-0.6,5.6-2.1,8.9-4.5c3.3-2.4,6.3-5.1,9-7.9
			s4.8-5.7,6.2-8.3C785.5,236.6,785.8,234.8,784.8,233.9z"/>
		<path class="st0" d="M856.6,306.6c-5.4-0.4-10.2-2.1-14.4-5.3c-4.2-3.2-7.7-7.2-10.7-12.1c-3-4.9-5.2-10.4-6.8-16.6
			c-1.6-6.2-2.4-12.5-2.5-18.8c-0.1-6.3,0.5-12.5,1.7-18.6c1.3-6.1,3.3-11.5,6.1-16.2c2.8-4.7,6.5-8.5,10.9-11.4
			c4.5-2.9,9.7-4.3,15.7-4.3c3.1,0,5.7,1.1,7.7,3.2c2,2.2,3,4.9,3,8.1c0,5.1-2.3,10.1-7,15.3c-4.6,5.1-10.9,9.5-18.9,13.1
			c-0.1,1.3-0.2,2.6-0.3,4c-0.1,1.3-0.1,2.7-0.1,4.2c0,4.6,0.4,9.5,1.1,14.7c0.7,5.2,1.8,10.1,3.2,14.4c1.4,4.4,3,8.1,4.9,11
			c1.9,2.9,3.9,4.4,6.2,4.4c3,0,6.3-1.9,9.9-5.6c3.6-3.7,7.2-8.7,10.7-14.8c3.5-6.1,6.9-13.1,10.1-20.9c3.2-7.8,5.9-15.7,8-23.7
			c0.2-1.2,0.8-2.2,1.8-2.9c1-0.7,2-1.1,3.3-1.1c1.7,0,3,0.6,4.1,1.7c1,1.1,1.5,2.4,1.5,3.9c0,0.2,0,0.5-0.1,0.6
			c-0.1,0.2-0.1,0.4-0.1,0.6c-2.6,9.9-5.8,19.2-9.6,28.1c-3.7,8.8-7.8,16.6-12.2,23.2c-4.4,6.6-9,11.9-13.7,15.8
			C865.7,304.7,861.1,306.6,856.6,306.6z M856.6,214.2c-1.2,0-2.4,0.5-3.6,1.4c-1.2,0.9-2.3,2.1-3.4,3.5c-1.1,1.4-2.1,3.1-3.1,4.9
			c-1,1.8-1.7,3.7-2.3,5.6c4.6-2.9,7.7-5.5,9.3-7.9c1.6-2.3,2.6-4,2.8-5c0.2-0.6,0.4-1.1,0.4-1.5
			C856.6,214.7,856.6,214.4,856.6,214.2z"/>
		<path class="st0" d="M944.6,319.2c-4.6,0-8.2-1.8-10.7-5.3c-2.6-3.6-4.4-8.1-5.5-13.6c-1.1-5.5-1.6-11.7-1.5-18.4
			c0.1-6.7,0.4-13.3,1.1-19.6c0.7-6.3,1.5-12,2.4-17.2c1-5.1,1.8-8.8,2.5-11.1c-3.5,1.8-7.1,3.1-10.9,3.9c-3.8,0.8-7.7,1.3-11.6,1.5
			c-7.1,0.5-13.3-0.6-18.7-3.3c-5.4-2.6-9.7-6.1-13-10.4c-3.3-4.3-5.6-9-6.9-14.2c-1.3-5.2-1.3-10,0-14.4c1.3-4.4,3.8-8.1,7.6-11.1
			c3.8-3,9-4.5,15.6-4.5c3.4,0,6.2,0.6,8.4,1.8c2.2,1.2,4,2.8,5.2,4.7c1.3,1.9,2.1,4.1,2.6,6.6c0.5,2.5,0.7,5,0.7,7.5
			c0,1.8-0.2,3.9-0.5,6.2c-0.4,2.3-0.8,4.7-1.3,7.1c-0.5,2.4-1,4.8-1.6,7c-0.6,2.3-1.1,4.2-1.6,5.8c0.6,0.1,1.2,0.2,1.8,0.2
			c0.6,0,1.2,0,1.8,0c9.4,0,18-3.2,25.8-9.6c1.2-0.8,2.3-1.3,3.4-1.3c2.3,0,4.1,1.3,5.4,3.8c1.3,2.5,2.3,5.9,2.8,10
			c0.5,4.2,0.8,8.9,0.8,14.2c0,5.3-0.2,10.7-0.5,16.3c-0.3,5.6-0.7,11.1-1.3,16.5c-0.5,5.4-1,10.3-1.4,14.5
			c-0.4,4.3-0.7,7.8-0.9,10.6c-0.2,2.8-0.2,4.3,0.1,4.5c0.4-0.1,1-0.6,2-1.5c1-0.9,2.2-2.7,3.8-5.4c1.6-2.7,3.4-6.5,5.5-11.5
			c2.1-4.9,4.5-11.5,7.3-19.7c1.6-4.8,3-9.6,4.3-14.3c1.3-4.7,2.5-8.9,3.4-12.5c1-3.7,2-7.8,3.3-12.4c0.2-1.2,0.8-2.2,1.8-3
			c1-0.8,2.1-1.2,3.4-1.2c1.6,0,2.9,0.5,3.9,1.6c1,1.1,1.5,2.3,1.5,3.8c0,0.2,0,0.5-0.1,0.6c-0.1,0.2-0.1,0.4-0.1,0.6
			c-1.3,5.2-2.6,9.8-3.7,13.9c-1.1,4.1-2.5,8.7-4.1,13.8c-1.6,5.1-3.2,10.3-4.9,15.5c-1.7,5.2-3.4,10.2-5.2,15
			c-1.8,4.8-3.6,8.8-5.2,12c-0.8,1.7-1.9,3.4-3.1,5.2c-1.2,1.8-2.5,3.5-4,5.1c-1.4,1.6-3,2.8-4.7,3.8
			C948.3,318.8,946.5,319.2,944.6,319.2z M894.9,192.5c-1.7,0-3.1,0.8-4.2,2.3c-1.1,1.6-2,3.6-2.5,6c-0.5,2.5-0.8,5.1-0.7,7.9
			c0.1,2.8,0.4,5.5,1.1,7.9c0.7,2.5,1.6,4.6,2.9,6.4c1.3,1.8,2.8,2.8,4.6,3.1c0.5-1.3,1-3.1,1.6-5.2c0.6-2.2,1.1-4.4,1.6-6.8
			c0.5-2.3,0.9-4.6,1.2-6.9c0.3-2.2,0.5-4,0.5-5.3c0-4.2-0.5-6.9-1.4-7.9C898.5,193.1,897,192.5,894.9,192.5z"/>
	</g>
</g>
<g id="s" class="st1">
	<text transform="matrix(1 0 0 1 -592.7266 519.0313)" class="st2 st3" style="font-size:127.8754px;">S</text>
</g>
<g id="arrows">
	<g>
		<path class="st7" d="M365.9,294l-16.6-16.6c-2-2-2-5.3,0-7.3l28.3-28.3c2-2,5.3-2,7.3,0l16.6,16.6c2,2,2,5.3,0,7.3L373.2,294
			C371.2,296.1,367.9,296.1,365.9,294z"/>
		<polyline class="st0" points="399.1,208.2 375.2,232.1 381.3,238.2 405.2,214.3 		"/>
		<path class="st8" d="M366.6,181.6l-18,18c-1.6,1.6-1.6,4.3,0,5.9l23.6,23.6c1.6,1.6,4.3,1.6,5.9,0l18-18c1.6-1.6,1.6-4.3,0-5.9
			l-23.6-23.6C370.9,180,368.2,180,366.6,181.6z"/>
		<path class="st8" d="M421.9,230.9l-9.4-9.4c-4-4-10.5-4-14.5,0l-9.4,9.4c-4,4-4,10.5,0,14.5l9.4,9.4c4,4,10.5,4,14.5,0l9.4-9.4
			C425.8,241.4,425.8,234.9,421.9,230.9z"/>
		<polygon class="st8" points="400.4,237.7 414.1,223.2 405.2,214.3 381.3,238.2 405.2,262.1 415.9,251.3 		"/>
		
			<rect x="371" y="242.4" transform="matrix(0.7071 -0.7071 0.7071 0.7071 -70.9018 347.4989)" class="st7" width="26.1" height="33.8"/>
	</g>
	<g>
		<path class="st7" d="M92.2,181.9l16.6,16.6c2,2,2,5.3,0,7.3l-28.3,28.3c-2,2-5.3,2-7.3,0l-16.6-16.6c-2-2-2-5.3,0-7.3l28.3-28.3
			C86.9,179.9,90.2,179.9,92.2,181.9z"/>
		<polyline class="st0" points="59,267.7 82.9,243.8 76.8,237.8 52.9,261.7 		"/>
		<path class="st8" d="M91.5,294.3l18-18c1.6-1.6,1.6-4.3,0-5.9l-23.6-23.6c-1.6-1.6-4.3-1.6-5.9,0l-18,18c-1.6,1.6-1.6,4.3,0,5.9
			l23.6,23.6C87.2,296,89.9,296,91.5,294.3z"/>
		<path class="st8" d="M36.3,245l9.4,9.4c4,4,10.5,4,14.5,0l9.4-9.4c4-4,4-10.5,0-14.5l-9.4-9.4c-4-4-10.5-4-14.5,0l-9.4,9.4
			C32.3,234.5,32.3,241,36.3,245z"/>
		<polygon class="st8" points="57.7,238.2 44,252.8 52.9,261.7 76.8,237.8 52.9,213.9 42.2,224.6 		"/>
		
			<rect x="61.1" y="199.7" transform="matrix(0.7071 -0.7071 0.7071 0.7071 -131.4588 115.8265)" class="st7" width="26.1" height="33.8"/>
	</g>
</g>
</svg>
